<svg xmlns="http://www.w3.org/2000/svg" width="64" height="64" viewBox="0 0 64 64" xmlns="http://www.w3.org/2000/svg"><style>.og-bg{fill:#f7f3ea}.og-fg{fill:#1f5d3b}@media(prefers-color-scheme:dark){.og-bg{fill:#0f1410}.og-fg{fill:#5fb682}}</style><mask id="satori_om-id"><rect x="0" y="0" width="64" height="64" fill="#fff"/></mask><path x="0" y="0" width="64" height="64" class="og-bg" d="M13,0 h38 a13,13 0 0 1 13,13 v38 a13,13 0 0 1 -13,13 h-38 a13,13 0 0 1 -13,-13 v-38 a13,13 0 0 1 13,-13"/><mask id="satori_om-id-0"><rect x="17" y="0" width="30" height="61" fill="#fff"/></mask><g  ><path class="og-fg" d="M39.6 44.8L41.8 38.3L43.7 38.3Q43.9 39.1 44.1 40.1Q44.2 41.1 44.3 42.3Q44.5 43.5 44.5 44.6Q44.6 45.8 44.6 46.7L44.6 46.7Q42.9 47.7 40.5 48.1Q38.1 48.6 35.6 48.6L35.6 48.6Q31.8 48.6 28.7 47.6Q25.6 46.7 23.4 44.6Q21.2 42.6 20.0 39.4Q18.8 36.3 18.8 31.9L18.8 31.9Q18.8 27.5 20.1 24.3Q21.4 21.2 23.6 19.2Q25.8 17.1 28.8 16.2Q31.7 15.2 34.9 15.2L34.9 15.2Q37.9 15.2 40.4 15.7Q42.9 16.1 44.4 16.9L44.4 16.9Q44.4 17.6 44.3 18.7Q44.3 19.9 44.1 21.2Q44.0 22.4 43.7 23.6Q43.5 24.9 43.4 25.7L43.4 25.7L41.4 25.7L38.9 18.7Q38.5 18.5 37.6 18.4Q36.6 18.2 35.7 18.2L35.7 18.2Q33.9 18.2 32.3 18.9Q30.7 19.6 29.4 21.1Q28.2 22.6 27.4 24.9Q26.6 27.3 26.5 30.5L26.5 30.5L38.8 29.7Q39.3 30.8 39.3 32.2Q39.3 33.6 39.1 34.5L39.1 34.5Q36.2 34.1 32.9 33.9Q29.5 33.7 26.5 33.6L26.5 33.6Q26.8 39.4 29.4 42.5Q31.9 45.6 36.2 45.6L36.2 45.6Q37.5 45.6 38.4 45.4Q39.3 45.1 39.6 44.8L39.6 44.8Z "/></g><mask id="satori_om-id-1"><rect x="48" y="48" width="7" height="7" fill="#fff"/></mask><rect x="48" y="48" width="7" height="7" fill="#d9621b" transform="matrix(0.71,0.71,-0.71,0.71,51.50,-21.33)"/></svg>